<?xml version="1.0" encoding="UTF-8"?>
<svg id="Layer_2" data-name="Layer 2" xmlns="http://www.w3.org/2000/svg" viewBox="0 0 1000 306.14">
  <defs>
    <style>
      .cls-1 {
        fill: #0090c9;
      }

      .cls-2 {
        fill: #eaeaea;
      }
    </style>
  </defs>
  <g id="Layer_1-2" data-name="Layer 1">
    <g>
      <g>
        <path class="cls-2" d="m157.64,146.56v102.64c0,1.67-.57,3.16-1.68,4.46-1.13,1.19-2.43,1.77-3.89,1.77-.78,0-1.53-.14-2.22-.44-.35-.1-.64-.3-.9-.6l-70.97-97.62c-25.65,3.56-51.28,7.42-76.87,11.58-.75,3.48-1.11,7.13-1.11,10.95v123.71h44.21v-110.92c0-1.79.52-3.28,1.54-4.46,1.13-1.29,2.46-1.93,4.03-1.93.69,0,1.39.14,2.06.44.35.2.66.4.92.6l19.95,27.51,52.89,72.7c.26.4.57.8.92,1.19l1.54,2.23h.14c.26.4.56.76.9,1.03,8.64,9.83,19.05,14.73,31.25,14.73h2.72c10.71,0,19.83-4.32,27.35-12.94,7.6-8.62,11.4-19.09,11.4-31.37v-120.13c-14.73,1.53-29.46,3.14-44.2,4.86Z"/>
        <path class="cls-2" d="m262.62,179.9c2.15-2.47,4.74-3.72,7.77-3.72h107.86v-38.05h-118.88c-12.18,0-22.61,4.96-31.25,14.87-8.64,9.91-12.96,21.85-12.96,35.82v63.51c0,13.97,4.32,25.91,12.96,35.82,8.55,9.91,18.97,14.87,31.25,14.87h118.88v-38.05h-107.86c-3.04,0-5.62-1.19-7.77-3.58-2.17-2.57-3.24-5.59-3.24-9.06v-12.64h113.43v-38.07h-113.43v-12.8c0-3.46,1.08-6.43,3.24-8.92Z"/>
        <path class="cls-2" d="m535.22,217.37l69.1-79.25h-52.51l-49.78,57.1-49.78-57.1h-55.21l69.1,79.25-74.68,85.64h55.23l53.93-61.86,53.93,61.86h55.35l-74.67-85.64Z"/>
        <path class="cls-2" d="m757.31,138.12v101.56c0,6.93-2.17,12.94-6.49,17.99-4.32,4.86-9.51,7.28-15.55,7.28h-49.78c-6.14,0-11.37-2.43-15.69-7.28-4.32-5.06-6.49-11.07-6.49-17.99v-101.56h-44.2v114.2c0,13.97,4.32,25.91,12.96,35.82,8.55,9.91,18.97,14.87,31.23,14.87h94c12.18,0,22.59-4.96,31.23-14.87,8.73-9.81,13.1-21.75,13.1-35.82v-114.2h-44.33Z"/>
        <path class="cls-2" d="m993.51,210.19c-4.32-4.96-9.51-7.44-15.55-7.44h-102.41c-3.04,0-5.62-1.23-7.77-3.72-2.17-2.47-3.24-5.49-3.24-9.08s1.08-6.43,3.24-8.92c2.15-2.47,4.74-3.72,7.77-3.72h116.15v-26.23c-36.11-4.52-72.29-8.46-108.49-11.82h-40.86c-6.06,0-11.28,2.47-15.69,7.42-4.23,5.06-6.35,11.07-6.35,17.99v50.71c0,7.05,2.12,13.04,6.35,17.99,4.41,4.96,9.63,7.44,15.69,7.44h102.41c3.02,0,5.62,1.23,7.79,3.7,2.15,2.49,3.23,5.45,3.23,8.94s-1.08,6.49-3.23,9.06c-2.17,2.39-4.77,3.58-7.79,3.58h-129.9v38.05h163.09c6.04,0,11.23-2.43,15.55-7.28,4.32-5.06,6.49-11.05,6.49-17.99v-50.85c0-6.95-2.17-12.88-6.49-17.83Z"/>
      </g>
      <g>
        <path class="cls-2" d="m896.05,32.34h8.58v31.79h19.01v7.21h-27.59v-39Z"/>
        <path class="cls-2" d="m940.52,32.34h8.79l14.58,39h-8.9l-2.95-8.69h-14.58l-3.06,8.69h-8.69l14.8-39Zm9.29,23.93l-4.92-14.31h-.11l-5.08,14.31h10.11Z"/>
        <path class="cls-2" d="m967.32,32.34h18.35c8.3,0,12.46,3.22,12.46,9.67,0,3.68-1.77,6.39-5.3,8.14,4.77,1.35,7.16,4.64,7.16,9.89,0,3.71-1.42,6.59-4.26,8.63-2.48,1.78-5.65,2.68-9.5,2.68h-18.9v-39Zm17.26,15.79c3.5,0,5.24-1.55,5.24-4.64s-1.97-4.48-5.9-4.48h-8.03v9.12h8.68Zm.49,16.55c4.22,0,6.34-1.71,6.34-5.13,0-3.71-2.06-5.57-6.17-5.57h-9.34v10.71h9.18Z"/>
      </g>
      <path class="cls-1" d="m1000,103.04v17.96c-122.45-13.59-245.44-21.46-368.57-23.65C420.7,93.63,209.56,106.61,0,136.3v-48.57c332.01-36.84,667.98-31.74,1000,15.3Z"/>
      <path class="cls-1" d="m864.53,38.02v22.12c-77.56-8.43-155.46-14.59-233.09-18.5C420.94,31.11,210.48,37.24.07,60.12l-.07-47.82C287.63-10.22,577.91-1.91,864.53,38.02Z"/>
    </g>
  </g>
</svg>